# xmcd CD database file
#
# Track frame offsets:
#	150
#	17515
#	35192
#	51182
#	72070
#	87887
#	106705
#	127005
#	148950
#	164800
#
# Disc length: 2425 seconds
#
# Revision: 5
# Processed by: cddbd v1.5.2PL0 Copyright (c) Steve Scherf et al.
# Submitted via: CDex 1.50beta10
#
DISCID=8d09770a
DTITLE=Charlie Daniels Band - Windows
DYEAR=1982
DGENRE=Southern Rock
TTITLE0=Still In Saigon
TTITLE1=Ain't No Ramblers Anymore
TTITLE2=The Lady In Red
TTITLE3=We Had It All One Time
TTITLE4=Partyin' Gal
TTITLE5=Ragin' Cajun
TTITLE6=Makes You Want To Go Home
TTITLE7=Blowing Along With The Wind
TTITLE8=Nashville Moon
TTITLE9=The Universal Hand
EXTD=YEAR: 1982
EXTT0=
EXTT1=
EXTT2=
EXTT3=
EXTT4=
EXTT5=
EXTT6=
EXTT7=
EXTT8=
EXTT9=
PLAYORDER=
